<svg viewBox="0 0 32 32" xml:space="preserve" xmlns="http://www.w3.org/2000/svg" fill-rule="evenodd" clip-rule="evenodd" stroke-linejoin="round" stroke-miterlimit="2"><path d="M8 14.171A3 3 0 0 0 6 17v9.916a3 3 0 0 0 3 3h14a3 3 0 0 0 3-3V17a3 3 0 0 0-2-2.829V9.959A7.959 7.959 0 0 0 16.041 2h-.082A7.959 7.959 0 0 0 8 9.959v4.212Zm6.998 9.615V25a1 1 0 0 0 2 0v-1.212A3.001 3.001 0 1 0 13 20.958c0 1.304.834 2.416 1.998 2.828ZM22 14H10V9.959A5.96 5.96 0 0 1 15.959 4h.082A5.96 5.96 0 0 1 22 9.959V14Z" fill="#ffffff" class="fill-000000"></path></svg>