<?xml version="1.0" ?><!DOCTYPE svg  PUBLIC '-//W3C//DTD SVG 1.1//EN'  'http://www.w3.org/Graphics/SVG/1.1/DTD/svg11.dtd'><svg height="8.4666mm" style="shape-rendering:geometricPrecision; text-rendering:geometricPrecision; image-rendering:optimizeQuality; fill-rule:evenodd; clip-rule:evenodd" version="1.1" viewBox="0 0 846.66 846.66" width="8.4666mm" xml:space="preserve" xmlns="http://www.w3.org/2000/svg" xmlns:xlink="http://www.w3.org/1999/xlink"><defs><style type="text/css">
   <![CDATA[
    .fil0 {fill:black;fill-rule:nonzero}
   ]]>
  </style></defs><g id="Layer_x0020_1"><path class="fil0" d="M693.64 53.21c75.04,29.92 121.57,73.4 121.94,123.37 2.14,163.72 0.01,329.01 0.01,492.9 0,50.23 -46.61,93.93 -121.95,123.97 -150.41,59.98 -390.21,59.98 -540.62,0 -75.34,-30.04 -121.95,-73.74 -121.95,-123.97 0,-163.89 -2.13,-329.18 0.01,-492.9 0.37,-49.97 46.9,-93.45 121.94,-123.37 150.41,-59.98 390.21,-59.98 540.62,0zm80.44 201.65c-20.41,17.61 -47.71,33.24 -80.44,46.29 -150.41,59.98 -390.21,59.98 -540.62,0 -32.73,-13.05 -60.03,-28.68 -80.44,-46.29l0 86.42c0,31.59 36.56,61.97 95.68,85.54 140.19,55.91 369.95,55.91 510.14,0 59.12,-23.57 95.68,-53.95 95.68,-85.54l0 -86.42zm-701.5 164.1l0 86.42c0,31.59 36.56,61.97 95.68,85.54 140.19,55.91 369.95,55.91 510.14,0 59.12,-23.57 95.68,-53.95 95.68,-85.54l0 -86.42c-20.41,17.61 -47.71,33.24 -80.44,46.29 -150.41,59.98 -390.21,59.98 -540.62,0 -32.73,-13.05 -60.03,-28.68 -80.44,-46.29zm0 164.1l0 86.42c0,31.59 36.56,61.97 95.68,85.54 140.19,55.91 369.95,55.91 510.14,0 59.12,-23.57 95.68,-53.95 95.68,-85.54l0 -86.42c-20.41,17.62 -47.71,33.24 -80.44,46.29 -150.41,59.98 -390.21,59.98 -540.62,0 -32.73,-13.05 -60.03,-28.67 -80.44,-46.29zm605.82 -491.42c-140.19,-55.91 -369.95,-55.91 -510.14,0 -59.12,23.57 -95.68,53.95 -95.68,85.54 0,31.59 36.56,61.97 95.68,85.54 140.19,55.91 369.95,55.91 510.14,0 59.12,-23.57 95.68,-53.95 95.68,-85.54 0,-31.59 -36.56,-61.97 -95.68,-85.54z"/></g></svg>