<svg width="24" height="24" viewBox="0 0 24 24" xmlns="http://www.w3.org/2000/svg"><path clip-rule="evenodd" d="M3.25 2A.75.75 0 0 1 4 1.25h10a.75.75 0 0 1 0 1.5H4.75v18.5h14.5V2.75H18a.75.75 0 0 1 0-1.5h2a.75.75 0 0 1 .75.75v20a.75.75 0 0 1-.75.75H4a.75.75 0 0 1-.75-.75V2Z" class="fill-000000"></path><path clip-rule="evenodd" d="M5.75 7a.75.75 0 0 1 .75-.75h11a.75.75 0 0 1 0 1.5h-11A.75.75 0 0 1 5.75 7ZM5.75 12a.75.75 0 0 1 .75-.75h11a.75.75 0 0 1 0 1.5h-11a.75.75 0 0 1-.75-.75ZM5.75 17a.75.75 0 0 1 .75-.75h11a.75.75 0 0 1 0 1.5h-11a.75.75 0 0 1-.75-.75Z" class="fill-000000"></path></svg>